<svg xmlns="http://www.w3.org/2000/svg" xml:space="preserve" width="192" height="192" data-version="2">
    <path d="M96.27 36.18q20.33 0 33.42 8.24 13.09 8.24 13.4 24.41v1.85h-31.88v-.62q0-4.62-3.39-7.7T97.5 59.28q-6.77 0-10.39 2-3.62 2-3.62 4.93 0 4.16 4.93 6.16 4.92 2 15.86 4.16 12.78 2.62 21.02 5.46 8.24 2.85 14.4 9.32 6.16 6.47 6.31 17.56 0 18.79-12.7 27.87-12.71 9.09-33.96 9.09-24.79 0-38.58-8.32-13.78-8.31-13.78-29.41h32.19q0 8.01 4.15 10.7 4.16 2.7 12.94 2.7 6.47 0 10.7-1.39 4.24-1.39 4.24-5.7 0-3.85-4.7-5.77-4.7-1.93-15.32-4.08-12.94-2.78-21.41-5.78-8.47-3-14.78-9.93-6.32-6.93-6.32-18.79 0-17.4 13.48-25.64 13.47-8.24 34.11-8.24" paint-order="stroke"/>
    <rect width="99.02" height="109.65" x="-49.51" y="-54.825" fill="none" rx="0" ry="0" transform="translate(97 91.505)"/>
</svg>
