<svg xmlns="http://www.w3.org/2000/svg" version="1.1" xmlns:xlink="http://www.w3.org/1999/xlink" width="2000" height="439" viewBox="0 0 2000 439"><svg xml:space="preserve" width="2000" height="439" data-version="2" data-id="lg_NNAYuCeKQvX4eRhk5F" viewBox="0 0 563 439" x="0" y="0"><rect width="100%" height="100%" fill="transparent"></rect><circle r="10.2" fill="#2c106a" transform="translate(66.74 322.56)scale(2.408)"></circle><circle r="2" fill="#2c106a" transform="translate(66.74 280.66)scale(2.408)"></circle><circle r="2" fill="#2c106a" transform="translate(108.64 238.76)scale(2.408)"></circle><circle r="2" fill="#2c106a" transform="translate(108.64 322.56)scale(2.408)"></circle><circle r="10.2" fill="#2c106a" transform="translate(108.64 280.66)scale(2.408)"></circle><circle r="10.2" fill="#2c106a" transform="translate(66.74 238.76)scale(2.408)"></circle><circle r="2" fill="#2c106a" transform="translate(66.74 196.87)scale(2.408)"></circle><circle r="2" fill="#2c106a" transform="translate(108.64 154.97)scale(2.408)"></circle><circle r="10.2" fill="#2c106a" transform="translate(66.74 154.97)scale(2.408)"></circle><circle r="10.2" fill="#2c106a" transform="translate(108.64 196.87)scale(2.408)"></circle><circle r="10.2" fill="#2c106a" transform="translate(150.53 322.56)scale(2.408)"></circle><circle r="2" fill="#2c106a" transform="translate(150.53 280.66)scale(2.408)"></circle><circle r="2" fill="#2c106a" transform="translate(192.43 238.76)scale(2.408)"></circle><circle r="2" fill="#2c106a" transform="translate(192.43 322.56)scale(2.408)"></circle><circle r="10.2" fill="#2c106a" transform="translate(192.43 280.66)scale(2.408)"></circle><circle r="10.2" fill="#2c106a" transform="translate(150.53 238.76)scale(2.408)"></circle><circle r="2" fill="#2c106a" transform="translate(150.53 196.87)scale(2.408)"></circle><circle r="2" fill="#2c106a" transform="translate(192.43 154.97)scale(2.408)"></circle><circle r="10.2" fill="#2c106a" transform="translate(150.53 154.97)scale(2.408)"></circle><circle r="10.2" fill="#2c106a" transform="translate(234.32 322.56)scale(2.408)"></circle><circle r="2" fill="#2c106a" transform="translate(234.32 280.66)scale(2.408)"></circle><circle r="10.2" fill="#2c106a" transform="translate(234.32 238.76)scale(2.408)"></circle><circle r="2" fill="#2c106a" transform="translate(234.32 196.87)scale(2.408)"></circle><circle r="10.2" fill="#2c106a" transform="translate(234.32 154.97)scale(2.408)"></circle><circle r="10.2" fill="#2c106a" transform="translate(192.43 196.87)scale(2.408)"></circle><circle r="10.2" fill="#2c106a" transform="translate(108.48 196.45)scale(2.408)"></circle><circle r="2" fill="#2c106a" transform="translate(108.48 154.55)scale(2.408)"></circle><circle r="2" fill="#2c106a" transform="translate(150.38 112.66)scale(2.408)"></circle><circle r="2" fill="#2c106a" transform="translate(150.38 196.45)scale(2.408)"></circle><circle r="10.2" fill="#2c106a" transform="translate(150.38 154.55)scale(2.408)"></circle><circle r="10.2" fill="#2c106a" transform="translate(108.48 112.66)scale(2.408)"></circle><circle r="2" fill="#2c106a" transform="translate(108.48 70.76)scale(2.408)"></circle><circle r="2" fill="#2c106a" transform="translate(150.38 28.86)scale(2.408)"></circle><circle r="10.2" fill="#2c106a" transform="translate(108.48 28.86)scale(2.408)"></circle><circle r="10.2" fill="#2c106a" transform="translate(150.38 70.76)scale(2.408)"></circle><circle r="10.2" fill="#2c106a" transform="translate(192.27 196.45)scale(2.408)"></circle><circle r="2" fill="#2c106a" transform="translate(192.27 154.55)scale(2.408)"></circle><circle r="2" fill="#2c106a" transform="translate(234.17 112.66)scale(2.408)"></circle><circle r="2" fill="#2c106a" transform="translate(234.17 196.45)scale(2.408)"></circle><circle r="10.2" fill="#2c106a" transform="translate(234.17 154.55)scale(2.408)"></circle><circle r="10.2" fill="#2c106a" transform="translate(192.27 112.66)scale(2.408)"></circle><circle r="2" fill="#2c106a" transform="translate(192.27 70.76)scale(2.408)"></circle><circle r="2" fill="#2c106a" transform="translate(234.17 28.86)scale(2.408)"></circle><circle r="10.2" fill="#2c106a" transform="translate(192.27 28.86)scale(2.408)"></circle><circle r="10.2" fill="#2c106a" transform="translate(276.07 196.45)scale(2.408)"></circle><circle r="2" fill="#2c106a" transform="translate(276.07 154.55)scale(2.408)"></circle><circle r="10.2" fill="#2c106a" transform="translate(276.07 112.66)scale(2.408)"></circle><circle r="2" fill="#2c106a" transform="translate(276.07 70.76)scale(2.408)"></circle><circle r="10.2" fill="#2c106a" transform="translate(276.07 28.86)scale(2.408)"></circle><circle r="10.2" fill="#2c106a" transform="translate(234.17 70.76)scale(2.408)"></circle><circle r="10.2" fill="#2c106a" transform="translate(234.5 322.64)scale(2.408)"></circle><circle r="2" fill="#2c106a" transform="translate(234.5 280.74)scale(2.408)"></circle><circle r="2" fill="#2c106a" transform="translate(276.4 238.84)scale(2.408)"></circle><circle r="2" fill="#2c106a" transform="translate(276.4 322.64)scale(2.408)"></circle><circle r="10.2" fill="#2c106a" transform="translate(276.4 280.74)scale(2.408)"></circle><circle r="10.2" fill="#2c106a" transform="translate(234.5 238.84)scale(2.408)"></circle><circle r="2" fill="#2c106a" transform="translate(234.5 196.94)scale(2.408)"></circle><circle r="2" fill="#2c106a" transform="translate(276.4 155.05)scale(2.408)"></circle><circle r="10.2" fill="#2c106a" transform="translate(234.5 155.05)scale(2.408)"></circle><circle r="10.2" fill="#2c106a" transform="translate(276.4 196.94)scale(2.408)"></circle><circle r="10.2" fill="#2c106a" transform="translate(318.29 322.64)scale(2.408)"></circle><circle r="2" fill="#2c106a" transform="translate(318.29 280.74)scale(2.408)"></circle><circle r="2" fill="#2c106a" transform="translate(360.19 238.84)scale(2.408)"></circle><circle r="2" fill="#2c106a" transform="translate(360.19 322.64)scale(2.408)"></circle><circle r="10.2" fill="#2c106a" transform="translate(360.19 280.74)scale(2.408)"></circle><circle r="10.2" fill="#2c106a" transform="translate(318.29 238.84)scale(2.408)"></circle><circle r="2" fill="#2c106a" transform="translate(318.29 196.94)scale(2.408)"></circle><circle r="2" fill="#2c106a" transform="translate(360.19 155.05)scale(2.408)"></circle><circle r="10.2" fill="#2c106a" transform="translate(318.29 155.05)scale(2.408)"></circle><circle r="10.2" fill="#2c106a" transform="translate(402.08 322.64)scale(2.408)"></circle><circle r="2" fill="#2c106a" transform="translate(402.08 280.74)scale(2.408)"></circle><circle r="10.2" fill="#2c106a" transform="translate(402.08 238.84)scale(2.408)"></circle><circle r="2" fill="#2c106a" transform="translate(402.08 196.94)scale(2.408)"></circle><circle r="10.2" fill="#2c106a" transform="translate(402.08 155.05)scale(2.408)"></circle><circle r="10.2" fill="#2c106a" transform="translate(360.19 196.94)scale(2.408)"></circle><circle r="10.2" fill="#2c106a" transform="translate(319.22 407.89)scale(2.421)"></circle><circle r="2" fill="#2c106a" transform="translate(319.22 365.76)scale(2.421)"></circle><circle r="2" fill="#2c106a" transform="translate(361.35 323.63)scale(2.421)"></circle><circle r="2" fill="#2c106a" transform="translate(361.35 407.89)scale(2.421)"></circle><circle r="10.2" fill="#2c106a" transform="translate(361.35 365.76)scale(2.421)"></circle><circle r="10.2" fill="#2c106a" transform="translate(319.22 323.63)scale(2.421)"></circle><circle r="2" fill="#2c106a" transform="translate(319.22 281.5)scale(2.421)"></circle><circle r="2" fill="#2c106a" transform="translate(361.35 239.38)scale(2.421)"></circle><circle r="10.2" fill="#2c106a" transform="translate(319.22 239.38)scale(2.421)"></circle><circle r="10.2" fill="#2c106a" transform="translate(361.35 281.5)scale(2.421)"></circle><circle r="10.2" fill="#2c106a" transform="translate(403.48 407.89)scale(2.421)"></circle><circle r="2" fill="#2c106a" transform="translate(403.48 365.76)scale(2.421)"></circle><circle r="2" fill="#2c106a" transform="translate(445.6 323.63)scale(2.421)"></circle><circle r="2" fill="#2c106a" transform="translate(445.6 407.89)scale(2.421)"></circle><circle r="10.2" fill="#2c106a" transform="translate(445.6 365.76)scale(2.421)"></circle><circle r="10.2" fill="#2c106a" transform="translate(403.48 323.63)scale(2.421)"></circle><circle r="2" fill="#2c106a" transform="translate(403.48 281.5)scale(2.421)"></circle><circle r="2" fill="#2c106a" transform="translate(445.6 239.38)scale(2.421)"></circle><circle r="10.2" fill="#2c106a" transform="translate(403.48 239.38)scale(2.421)"></circle><circle r="10.2" fill="#2c106a" transform="translate(487.73 407.89)scale(2.421)"></circle><circle r="2" fill="#2c106a" transform="translate(487.73 365.76)scale(2.421)"></circle><circle r="10.2" fill="#2c106a" transform="translate(487.73 323.63)scale(2.421)"></circle><circle r="2" fill="#2c106a" transform="translate(487.73 281.5)scale(2.421)"></circle><circle r="10.2" fill="#2c106a" transform="translate(487.73 239.38)scale(2.421)"></circle><circle r="10.2" fill="#2c106a" transform="translate(445.6 281.5)scale(2.421)"></circle><g transform="translate(281.5 229.26)"><filter id="a" width="140%" height="140%" x="-20%" y="-20%"><feGaussianBlur in="SourceAlpha"></feGaussianBlur><feOffset result="oBlur"></feOffset><feFlood flood-color="#F75CFF" flood-opacity="1"></feFlood><feComposite in2="oBlur" operator="in"></feComposite><feMerge><feMergeNode></feMergeNode><feMergeNode in="SourceGraphic"></feMergeNode></feMerge></filter><g filter="url(#a)"><path fill="#fff" d="M-228.045-68.75q19.8 0 32.55 8.02 12.75 8.03 13.05 23.78v1.8h-31.05v-.6q0-4.5-3.3-7.5t-10.05-3q-6.6 0-10.13 1.95-3.52 1.95-3.52 4.8 0 4.05 4.8 6 4.8 1.95 15.45 4.05 12.45 2.55 20.47 5.32 8.03 2.78 14.03 9.08 6 6.3 6.15 17.1 0 18.3-12.38 27.15-12.37 8.85-33.07 8.85-24.15 0-37.58-8.1-13.42-8.1-13.42-28.65h31.35q0 7.8 4.05 10.42 4.05 2.63 12.6 2.63 6.3 0 10.42-1.35 4.13-1.35 4.13-5.55 0-3.75-4.58-5.63-4.57-1.87-14.92-3.97-12.6-2.7-20.85-5.63-8.25-2.92-14.4-9.67t-6.15-18.3q0-16.95 13.12-24.98 13.13-8.02 33.23-8.02"></path><rect width="96.45" height="106.8" x="-48.23" y="-53.4" fill="none" rx="0" ry="0" transform="translate(-227.32 -14.85)"></rect><path fill="#fff" d="M-110.745 33.85q-6.15 16.65-15.08 25.27-8.92 8.63-24.97 8.63-9.75 0-17.25-2.7V47.2h12q11.25 0 13.35-10.95l-31.5-79.2h32.1l15.15 52.65h1.05l13.95-52.65h29.4z"></path><rect width="91.65" height="110.7" x="-45.83" y="-55.35" fill="none" rx="0" ry="0" transform="translate(-127.87 12.9)"></rect><path fill="#fff" d="M-21.195 36.25h-31.35l-30-79.2h32.1l14.55 49.35h1.05l14.55-49.35h29.4z"></path><rect width="91.65" height="79.2" x="-45.83" y="-39.6" fill="none" rx="0" ry="0" transform="translate(-36.22 -2.85)"></rect><path fill="#fff" d="M59.055-44.75q20.85 0 32.77 10.57 11.93 10.58 11.93 30.83t-11.93 30.82q-11.92 10.58-32.77 10.58t-32.7-10.5q-11.85-10.5-11.85-30.9t11.85-30.9q11.85-10.5 32.7-10.5m0 20.25q-14.7 0-14.7 16.95V1q0 16.8 14.7 16.8 14.85 0 14.85-16.8v-8.55q0-16.95-14.85-16.95"></path><rect width="89.25" height="82.8" x="-44.63" y="-41.4" fill="none" rx="0" ry="0" transform="translate(59.63 -2.85)"></rect><path fill="#fff" d="M166.305-44.9q3.45 0 6.15.82 2.7.83 2.7.98v25.05h-9.6q-9.3 0-13.43 4.8-4.12 4.8-4.12 14.25v35.25h-29.85v-79.2h24.45l1.95 12q2.7-6.9 8.55-10.43 5.85-3.52 13.2-3.52"></path><rect width="57" height="81.15" x="-28.5" y="-40.58" fill="none" rx="0" ry="0" transform="translate(147.16 -3.83)"></rect><path fill="#fff" d="M223.895-44.75q18.15 0 29.56 6.07 11.4 6.08 11.4 19.73v30.9q0 2.55 1.19 4.2 1.21 1.65 3.6 1.65h5.4v17.25q-.44.3-2.32.97-1.87.68-5.33 1.35-3.44.68-7.94.68-8.7 0-14.33-2.63-5.62-2.62-7.73-7.27-5.69 4.5-12.75 7.2-7.04 2.7-16.5 2.7-27.89 0-27.89-22.2 0-11.55 6.22-17.63 6.23-6.07 17.92-8.32 11.71-2.25 30.61-2.25v-3.9q0-4.65-3.23-7.05-3.23-2.4-8.32-2.4-4.66 0-8.03 1.65-3.38 1.65-3.38 5.25v.6h-29.4q-.14-.75-.14-2.1 0-11.25 10.72-17.85 10.73-6.6 30.67-6.6m11.11 46.5q-12.75 0-18.83 2.77-6.07 2.78-6.07 7.43 0 7.5 10.19 7.5 5.85 0 10.28-3.15t4.43-7.8z"></path><rect width="94.79" height="82.8" x="-47.4" y="-41.4" fill="none" rx="0" ry="0" transform="translate(228.15 -2.85)"></rect></g></g></svg></svg>